<svg width="20" height="20" viewBox="0 0 20 20" fill="none" xmlns="http://www.w3.org/2000/svg">
<path d="M0.5 2C0.5 1.17157 1.17157 0.5 2 0.5H18C18.8284 0.5 19.5 1.17157 19.5 2V18C19.5 18.8284 18.8284 19.5 18 19.5H2C1.17157 19.5 0.5 18.8284 0.5 18V2Z" stroke="#323232"/>
<rect x="11" y="4" width="5" height="2" rx="1" fill="#FFD887"/>
<rect x="11" y="4" width="2" height="5" rx="1" fill="#FFD887"/>
<rect x="4" y="11" width="5" height="2" rx="1" fill="#FFD887"/>
<rect x="4" y="11" width="2" height="5" rx="1" fill="#FFD887"/>
<rect x="11" y="11" width="5" height="2" rx="1" fill="#FFD887"/>
<rect x="11" y="11" width="2" height="5" rx="1" fill="#FFD887"/>
<rect x="4.5" y="4.5" width="4" height="4" rx="0.5" stroke="#FFB721"/>
<rect x="11.5" y="4.5" width="4" height="4" rx="0.5" stroke="#323232"/>
<rect x="11.5" y="11.5" width="4" height="4" rx="0.5" stroke="#323232"/>
<rect x="4.5" y="11.5" width="4" height="4" rx="0.5" stroke="#323232"/>
</svg>
