<svg width="169" height="173" viewBox="0 0 169 173" fill="none" xmlns="http://www.w3.org/2000/svg">
<path d="M63.4772 100.834C38.3213 63.5408 27.3202 26.9735 38.9055 19.1586C50.4909 11.3438 80.2757 35.2405 105.432 72.5336C130.588 109.827 141.589 146.394 130.003 154.209C118.418 162.024 88.6331 138.127 63.4772 100.834Z" stroke="#12B4DE" stroke-width="6" stroke-miterlimit="10" stroke-linecap="round" stroke-linejoin="round"/>
<path d="M84.4536 111.991C39.468 111.991 3 100.662 3 86.687C3 72.7119 39.468 61.3828 84.4536 61.3828C129.439 61.3828 165.907 72.7119 165.907 86.687C165.907 100.662 129.439 111.991 84.4536 111.991Z" stroke="#12B4DE" stroke-width="6" stroke-miterlimit="10" stroke-linecap="round" stroke-linejoin="round"/>
<path d="M38.9055 154.201C27.3201 146.386 38.3213 109.819 63.4772 72.5256C88.6331 35.2325 118.418 11.3358 130.003 19.1507C141.589 26.9656 130.588 63.5328 105.432 100.826C80.2757 138.119 50.4909 162.016 38.9055 154.201Z" stroke="#12B4DE" stroke-width="6" stroke-miterlimit="10" stroke-linecap="round" stroke-linejoin="round"/>
<path d="M84.4539 97.8677C78.2783 97.8677 73.272 92.8614 73.272 86.6858C73.272 80.5102 78.2783 75.5039 84.4539 75.5039C90.6294 75.5039 95.6357 80.5102 95.6357 86.6858C95.6357 92.8614 90.6294 97.8677 84.4539 97.8677Z" fill="#12B4DE"/>
</svg>
