<svg width="22" height="21" viewBox="0 0 22 21" fill="none" xmlns="http://www.w3.org/2000/svg">
<line x1="3.23633" y1="0.5" x2="0.67311" y2="0.5" stroke="white" stroke-linecap="round"/>
<path d="M4.40063 3.57321C4.35593 3.27121 4.58995 3 4.89524 3H20.1461C20.4901 3 20.7313 3.33927 20.6184 3.66418L17.8373 11.6642C17.7674 11.8652 17.5779 12 17.365 12H6.07936C5.83149 12 5.62104 11.8184 5.58474 11.5732L4.40063 3.57321Z" stroke="white" stroke-linecap="round"/>
<path d="M8.5808 18.3346C8.5808 18.9481 8.03893 19.5013 7.29919 19.5013C6.55944 19.5013 6.01758 18.9481 6.01758 18.3346C6.01758 17.7212 6.55944 17.168 7.29919 17.168C8.03893 17.168 8.5808 17.7212 8.5808 18.3346Z" stroke="#EFFAF7"/>
<path d="M16.5984 18.3346C16.5984 18.9481 16.0565 19.5013 15.3168 19.5013C14.577 19.5013 14.0352 18.9481 14.0352 18.3346C14.0352 17.7212 14.577 17.168 15.3168 17.168C16.0565 17.168 16.5984 17.7212 16.5984 18.3346Z" stroke="#EFFAF7"/>
<line x1="16.5977" y1="14.668" x2="6.0172" y2="14.668" stroke="white" stroke-linecap="round"/>
<line x1="0.5" y1="-0.5" x2="14.7362" y2="-0.5" transform="matrix(-0.175399 -0.984497 0.988063 -0.154053 6.4082 15)" stroke="white" stroke-linecap="round"/>
</svg>
